<mxfile host="app.diagrams.net" modified="2023-11-16T11:49:29.202Z" agent="Mozilla/5.0 (Windows NT 10.0; Win64; x64) AppleWebKit/537.36 (KHTML, like Gecko) Chrome/119.0.0.0 Safari/537.36" version="22.1.2" etag="iZTXZGktU7e19Z1TnnKF" type="github">
  <diagram name="Страница — 1" id="bVSm3YEhVZtEsz9ZMvLT">
    <mxGraphModel>
      <root>
        <mxCell id="0" />
        <mxCell id="1" parent="0" />
      </root>
    </mxGraphModel>
  </diagram>
</mxfile>
